<svg id="SvgjsSvg1070" width="288" height="288" xmlns="http://www.w3.org/2000/svg" version="1.1" xmlns:xlink="http://www.w3.org/1999/xlink" xmlns:svgjs="http://svgjs.com/svgjs"><defs id="SvgjsDefs1071"></defs><g id="SvgjsG1072"><svg xmlns="http://www.w3.org/2000/svg" enable-background="new 0 0 65 65" viewBox="0 0 65 65" width="288" height="288"><path d="m9.23 55.34c-2.85 0-5.17-2.32-5.17-5.17s2.32-5.17 5.17-5.17 5.17 2.32 5.17 5.17-2.32 5.17-5.17 5.17zm0-8.34c-1.75 0-3.17 1.42-3.17 3.17s1.42 3.17 3.17 3.17 3.17-1.42 3.17-3.17-1.42-3.17-3.17-3.17z" fill="#c68c2e" class="svgShape color000000-0 selectable"></path><path d="M16.96 64.5h-15.46c-.55 0-1-.45-1-1 0-4.94 2.03-7.73 6.02-8.27.31-.04.62.06.84.28l1.87 1.87 1.87-1.87c.22-.22.54-.32.84-.28 4 .54 6.02 3.32 6.02 8.27 0 .55-.45 1-1 1zm-14.43-2h13.4c-.26-3.83-2.05-4.86-3.78-5.21l-2.21 2.21c-.39.39-1.02.39-1.41 0l-2.21-2.21c-1.74.35-3.53 1.38-3.79 5.21zM27.73 55.34c-2.85 0-5.17-2.32-5.17-5.17s2.32-5.17 5.17-5.17 5.17 2.32 5.17 5.17c.01 2.85-2.31 5.17-5.17 5.17zm0-8.34c-1.75 0-3.17 1.42-3.17 3.17s1.42 3.17 3.17 3.17 3.17-1.42 3.17-3.17-1.42-3.17-3.17-3.17z" fill="#c68c2e" class="svgShape color000000-1 selectable"></path><path d="M35.47 64.5h-15.47c-.55 0-1-.45-1-1 0-4.94 2.03-7.73 6.02-8.27.31-.04.62.06.84.28l1.87 1.87 1.87-1.87c.22-.22.53-.32.84-.28 4 .54 6.02 3.32 6.02 8.27.01.55-.44 1-.99 1zm-14.43-2h13.4c-.26-3.83-2.05-4.86-3.78-5.21l-2.21 2.21c-.39.39-1.02.39-1.41 0l-2.21-2.21c-1.74.35-3.53 1.38-3.79 5.21zM46.24 55.34c-2.85 0-5.17-2.32-5.17-5.17s2.32-5.17 5.17-5.17 5.17 2.32 5.17 5.17-2.32 5.17-5.17 5.17zm0-8.34c-1.75 0-3.17 1.42-3.17 3.17s1.42 3.17 3.17 3.17 3.17-1.42 3.17-3.17-1.42-3.17-3.17-3.17z" fill="#c68c2e" class="svgShape color000000-2 selectable"></path><path d="M53.97 64.5h-15.46c-.55 0-1-.45-1-1 0-4.94 2.03-7.73 6.02-8.27.31-.04.62.06.84.28l1.87 1.87 1.87-1.87c.22-.22.54-.32.84-.28 4 .54 6.02 3.32 6.02 8.27 0 .55-.45 1-1 1zm-14.43-2h13.4c-.26-3.83-2.05-4.86-3.78-5.21l-2.21 2.21c-.39.39-1.02.39-1.41 0l-2.21-2.21c-1.73.35-3.53 1.38-3.79 5.21zM9.52 14.18c-.25 0-.49-.09-.68-.27l-3.22-3 1.36-1.46 2.54 2.37 4.76-4.44 1.36 1.46-5.45 5.08c-.18.17-.42.26-.67.26zM53.74 13.5c-2.39 0-4.34-1.95-4.34-4.34s1.95-4.34 4.34-4.34 4.34 1.95 4.34 4.34-1.95 4.34-4.34 4.34zm0-6.67c-1.29 0-2.34 1.05-2.34 2.34s1.05 2.34 2.34 2.34 2.34-1.05 2.34-2.34-1.05-2.34-2.34-2.34zM58.62 43.25c-1.7 0-3.12-1.28-3.29-2.98l-.59-4.81-.59 4.83c-.18 1.75-1.82 3.11-3.59 2.94-2.17-.2-2.17-2.53-2.17-3.41v-11.63l-.67-5.57-1.87.86c-.56.26-1.15.43-1.76.52l-4.5.65c-1.56.08-2.82-1.01-2.98-2.46-.08-.76.15-1.53.65-2.11s1.22-.94 1.98-.97l3.68-.54c.83-.12 1.6-.46 2.22-1 1.9-1.62 4.75-3.56 7.53-3.56.27 0 .52.11.71.29l1.35 1.35 1.35-1.35c.16-.16.38-.26.61-.29 1.89-.19 3.76.95 5.27 3.2 2 2.98 3.32 8.02 2.01 10.47-.48.9-1.28 1.39-2.26 1.39-.18 0-.41.01-.63.01v10.86c.01 2.19-.82 3.31-2.46 3.31zm-10.07-23.11c.17 0 .34.04.49.13.28.16.47.44.5.75l.84 6.99c0 .04.01.08.01.12v11.69c0 1.39.21 1.41.35 1.42.7.07 1.35-.48 1.42-1.17l1.34-10.91c.1-.64.62-1.09 1.24-1.09.63 0 1.15.45 1.24 1.07l1.34 10.92c.07.69.63 1.2 1.3 1.2.26 0 .47 0 .47-1.31v-11.82c0-.53.42-.97.95-1 0 0 1.07-.06 1.68-.06.2 0 .35-.05.49-.33.74-1.4.01-5.55-1.91-8.41-.58-.86-1.72-2.25-3.08-2.33l-1.78 1.78c-.19.19-.44.29-.71.29-.27 0-.52-.11-.71-.29l-1.75-1.75c-2.19.2-4.57 1.98-5.84 3.06-.91.78-2.03 1.28-3.23 1.46l-3.78.55c-.31.02-.51.12-.65.28-.14.17-.21.38-.18.59.04.41.4.71.81.69l4.4-.64c.42-.06.83-.18 1.21-.36l3.12-1.43c.14-.06.28-.09.42-.09z" fill="#c68c2e" class="svgShape color000000-3 selectable"></path><path d="m61.09 28.13h-2v-.11c0-3.28-.51-5.3-1.94-7.73l1.72-1.01c1.61 2.74 2.21 5.11 2.21 8.75v.1z" fill="#c68c2e" class="svgShape color000000-4 selectable"></path><g><path d="m10.64 20.77c-5.59 0-10.14-4.55-10.14-10.14s4.55-10.13 10.14-10.13 10.14 4.55 10.14 10.14-4.55 10.13-10.14 10.13zm0-18.27c-4.49 0-8.14 3.65-8.14 8.14s3.65 8.14 8.14 8.14 8.14-3.65 8.14-8.14-3.66-8.14-8.14-8.14z" fill="#c68c2e" class="svgShape color000000-6 selectable"></path></g><g><path d="M45.31 19.21h-2v-9.67h-23.79v-2h24.79c.55 0 1 .45 1 1zM44.31 39.16h-37.63c-.55 0-1-.45-1-1v-19.29h2v18.29h35.63v-14.23h2v15.23c0 .55-.45 1-1 1z" fill="#c68c2e" class="svgShape color000000-8 selectable"></path></g><g><path d="M21.42 16.55h15.71v2h-15.71zM13.85 22.35h20.5v2h-20.5zM13.85 28.15h23.28v2h-23.28z" fill="#c68c2e" class="svgShape color000000-10 selectable"></path></g></svg></g></svg>