<svg id="SvgjsSvg1085" width="288" height="288" xmlns="http://www.w3.org/2000/svg" version="1.1" xmlns:xlink="http://www.w3.org/1999/xlink" xmlns:svgjs="http://svgjs.com/svgjs"><defs id="SvgjsDefs1086"></defs><g id="SvgjsG1087"><svg xmlns="http://www.w3.org/2000/svg" enable-background="new 0 0 511.838 511.838" viewBox="0 0 511.838 511.838" width="288" height="288"><path d="M505.388 456.912c-3.382-10.275-12.545-17.322-23.345-17.953l-55.507-3.241-28.354-86.144c4.499-1.895 8.835-4.216 12.949-6.956 32.682-21.773 44.475-62.784 28.678-99.731l-67.256-157.298c-2.81-6.569-10.048-9.834-16.829-7.604l-99.805 32.85-99.805-32.849c-6.779-2.234-14.02 1.033-16.83 7.604 0 0-67.29 157.384-67.309 157.43-2.172 5.116-3.966 10.801-5.105 16.239-6.732 32.141 5.927 64.765 33.837 83.359 4.114 2.741 8.449 5.061 12.948 6.956l-28.354 86.144-55.508 3.241c-10.799.631-19.962 7.678-23.344 17.954-1.892 5.75 1.246 11.967 6.996 13.861l123.092 40.514c2.763.91 5.782.683 8.379-.627 2.618-1.322 4.565-3.584 5.481-6.369 3.382-10.274.195-21.386-8.117-28.308l-42.73-35.577 28.428-86.37c5.355 1.124 10.843 1.705 16.388 1.705 4.476 0 8.99-.372 13.497-1.124 33.126-5.53 59.135-30.583 64.79-62.379l33.267-140.875 33.267 140.875c5.655 31.797 31.664 56.85 64.791 62.379 4.507.752 9.019 1.125 13.496 1.124 5.544 0 11.031-.581 16.387-1.705l28.428 86.369-42.731 35.576c-8.313 6.921-11.499 18.033-8.117 28.308.916 2.786 2.863 5.048 5.481 6.37 2.543 1.284 5.551 1.559 8.38.628l25.164-8.283c3.935-1.295 6.074-5.534 4.779-9.469-1.295-3.934-5.532-6.076-9.469-4.779l-20.645 6.795c.145-3.064 1.555-5.986 4.023-8.042l44.373-36.942 57.641 3.365c3.208.188 6.077 1.7 8.014 4.079l-60.267 19.836c-3.935 1.295-6.074 5.534-4.779 9.469 1.295 3.934 5.53 6.076 9.469 4.779l64.787-21.324c5.75-1.893 8.887-8.11 6.996-13.86zm-372.704 30.598c2.469 2.056 3.879 4.977 4.023 8.042l-114.051-37.539c1.936-2.38 4.805-3.892 8.013-4.08l57.642-3.365zm84.6-237.802c-9.383-.093-18.601.619-26.736 1.339l-3.219.289c-4.125.37-7.17 4.015-6.799 8.141.37 4.125 4.033 7.174 8.141 6.799 8.323-.747 16.687-1.478 25.064-1.577 0 0-2.545 10.781-2.537 10.776 0 0-3.257 13.813-3.283 13.958-4.48 25.643-25.588 45.893-52.523 50.39-16.411 2.739-32.878-.701-46.369-9.689-22.974-15.305-33.203-42.382-27.21-68.949.53-2.349 1.178-4.694 1.964-7.027.017-.049.035-.098.052-.147 20.05 9.495 44.604 14.607 70.123 14.511 4.142-.016 7.486-3.387 7.471-7.529-.017-4.132-3.371-7.471-7.499-7.471h-.03c-23.665.107-46.205-4.652-64.357-13.427l63.056-147.477 94.445 31.085zm47.516-126.004l94.445-31.085 63.055 147.476c-19.871 9.625-44.676 14.33-70.691 13.289-8.371-.331-16.593-1.084-24.543-1.813-11.129-1.019-21.742-1.977-32.512-1.863zm91.646 216.119c-26.937-4.497-48.044-24.747-52.524-50.39-.025-.145-5.82-24.738-5.82-24.738 8.96.104 18.082.94 27.596 1.812 8.142.746 16.56 1.518 25.314 1.864 28.074 1.125 55.064-3.942 76.999-14.356.02.059.043.119.063.178.294.873 2.464 9.098 2.916 12.185.002-.002.005-.004.007-.007 3.64 24.853-6.704 49.453-28.182 63.762-13.491 8.989-29.962 12.429-46.369 9.69zM380.477 42.601c1.032.486 2.118.716 3.188.716 2.814 0 5.513-1.593 6.791-4.309l6.512-13.837c1.764-3.748.155-8.216-3.593-9.979-3.747-1.765-8.215-.156-9.979 3.593l-6.512 13.837c-1.764 3.747-.155 8.215 3.593 9.979zM430.74 114.928c.328 3.915 3.606 6.874 7.465 6.874.21 0 .423-.009.636-.027l15.239-1.279c4.128-.346 7.193-3.973 6.847-8.101s-4.001-7.199-8.101-6.847l-15.239 1.279c-4.128.347-7.193 3.974-6.847 8.101zM421.464 75.251c1.477 0 2.969-.435 4.273-1.341l12.559-8.727c3.401-2.364 4.242-7.038 1.879-10.439-2.362-3.401-7.037-4.242-10.439-1.879l-12.559 8.727c-3.401 2.364-4.242 7.038-1.879 10.439 1.457 2.096 3.792 3.22 6.166 3.22zM121.382 39.008c1.278 2.716 3.976 4.309 6.791 4.309 1.069 0 2.157-.23 3.188-.716 3.748-1.764 5.356-6.232 3.593-9.979l-6.512-13.837c-1.764-3.748-6.232-5.357-9.979-3.593-3.748 1.764-5.356 6.232-3.593 9.979zM57.758 120.496l15.239 1.279c.213.018.425.027.636.027 3.857 0 7.137-2.959 7.465-6.874.347-4.127-2.719-7.754-6.847-8.101l-15.239-1.279c-4.102-.348-7.755 2.718-8.101 6.847-.346 4.128 2.719 7.755 6.847 8.101zM73.542 65.183l12.559 8.727c1.306.907 2.797 1.341 4.273 1.341 2.374 0 4.709-1.124 6.166-3.221 2.363-3.401 1.522-8.075-1.879-10.439l-12.559-8.727c-3.405-2.365-8.076-1.521-10.439 1.879-2.363 3.402-1.522 8.076 1.879 10.44z" fill="#c68c2e" class="svgShape color000000-0 selectable"></path><path d="m219.395 52.813c14.771 6.515 23.36 20.28 27.166 27.905 1.779 3.566 5.364 5.781 9.355 5.782h.002c3.99 0 7.575-2.215 9.357-5.782 3.806-7.625 12.396-21.391 27.166-27.905 3.788-1.67 6.236-5.424 6.236-9.563s-2.448-7.893-6.236-9.563c-14.771-6.515-23.36-20.28-27.168-27.908-1.78-3.565-5.365-5.779-9.355-5.779-.001 0-.002 0-.002 0-3.991 0-7.576 2.216-9.355 5.781-3.806 7.625-12.395 21.391-27.166 27.905-3.788 1.67-6.236 5.424-6.236 9.563s2.448 7.894 6.236 9.564zm36.523-33.081c4.748 7.607 12.116 16.822 22.683 23.518-10.566 6.695-17.935 15.911-22.683 23.518-4.748-7.607-12.116-16.822-22.683-23.518 10.567-6.695 17.935-15.91 22.683-23.518z" fill="#c68c2e" class="svgShape color000000-1 selectable"></path></svg></g></svg>