<svg id="SvgjsSvg1043" width="288" height="288" xmlns="http://www.w3.org/2000/svg" version="1.1" xmlns:xlink="http://www.w3.org/1999/xlink" xmlns:svgjs="http://svgjs.com/svgjs"><defs id="SvgjsDefs1044"></defs><g id="SvgjsG1045"><svg xmlns="http://www.w3.org/2000/svg" viewBox="0 0 512 512" width="288" height="288"><path d="M85.332031 405.332031c-23.53125 0-42.664062-19.132812-42.664062-42.664062s19.132812-42.667969 42.664062-42.667969 42.667969 19.136719 42.667969 42.667969-19.136719 42.664062-42.667969 42.664062zm0-64c-11.765625 0-21.332031 9.570313-21.332031 21.335938s9.566406 21.332031 21.332031 21.332031 21.335938-9.566406 21.335938-21.332031-9.570313-21.335938-21.335938-21.335938zm0 0M138.667969 512h-128c-5.890625 0-10.667969-4.769531-10.667969-10.667969v-21.332031c0-14.238281 5.546875-27.625 15.617188-37.707031 10.078124-10.070313 23.476562-15.625 37.714843-15.625h64c14.253907 0 27.648438 5.554687 37.71875 15.625 4.160157 4.183593 4.160157 10.921875-.011719 15.09375-4.167968 4.160156-10.921874 4.148437-15.082031-.011719-6.035156-6.046875-14.070312-9.375-22.625-9.375h-64c-8.542969 0-16.574219 3.339844-22.621093 9.375-6.050782 6.050781-9.378907 14.082031-9.378907 22.625v10.667969h117.335938c5.886719 0 10.664062 4.765625 10.664062 10.664062 0 5.898438-4.777343 10.667969-10.664062 10.667969zm0 0M256 405.332031c-23.53125 0-42.667969-19.132812-42.667969-42.664062s19.136719-42.667969 42.667969-42.667969 42.667969 19.136719 42.667969 42.667969-19.136719 42.664062-42.667969 42.664062zm0-64c-11.765625 0-21.332031 9.570313-21.332031 21.335938s9.566406 21.332031 21.332031 21.332031 21.332031-9.566406 21.332031-21.332031-9.566406-21.335938-21.332031-21.335938zm0 0M330.667969 512h-149.335938c-5.886719 0-10.664062-4.769531-10.664062-10.667969v-21.332031c0-14.238281 5.546875-27.625 15.613281-37.707031 10.082031-10.070313 23.480469-15.625 37.71875-15.625h64c14.25 0 27.648438 5.554687 37.71875 15.625 10.058594 10.070312 15.613281 23.46875 15.613281 37.707031v21.332031c0 5.898438-4.765625 10.667969-10.664062 10.667969zm-138.667969-21.332031h128v-10.667969c0-8.542969-3.339844-16.585938-9.375-22.625-6.039062-6.046875-14.070312-9.375-22.625-9.375h-64c-8.542969 0-16.574219 3.339844-22.625 9.375-6.046875 6.050781-9.375 14.082031-9.375 22.625zm0 0M426.667969 405.332031c-23.53125 0-42.667969-19.132812-42.667969-42.664062s19.136719-42.667969 42.667969-42.667969 42.664062 19.136719 42.664062 42.667969-19.132812 42.664062-42.664062 42.664062zm0-64c-11.765625 0-21.335938 9.570313-21.335938 21.335938s9.570313 21.332031 21.335938 21.332031 21.332031-9.566406 21.332031-21.332031-9.566406-21.335938-21.332031-21.335938zm0 0M501.332031 512h-128c-5.898437 0-10.664062-4.769531-10.664062-10.667969 0-5.898437 4.765625-10.664062 10.664062-10.664062h117.335938v-10.667969c0-8.542969-3.339844-16.585938-9.378907-22.625-6.035156-6.046875-14.066406-9.375-22.621093-9.375h-64c-8.546875 0-16.589844 3.339844-22.625 9.375-4.171875 4.171875-10.914063 4.171875-15.082031 0-4.171876-4.167969-4.171876-10.910156 0-15.082031 10.070312-10.070313 23.464843-15.625 37.707031-15.625h64c14.25 0 27.648437 5.554687 37.714843 15.625 10.058594 10.070312 15.617188 23.46875 15.617188 37.707031v21.332031c0 5.898438-4.769531 10.667969-10.667969 10.667969zm0 0M352 213.332031h-21.332031v-21.332031c0-23.53125-19.136719-42.667969-42.667969-42.667969h-64c-23.53125 0-42.667969 19.136719-42.667969 42.667969v21.332031h-21.332031v-21.332031c0-35.296875 28.703125-64 64-64h64c35.296875 0 64 28.703125 64 64zm0 0M256 106.667969c-29.40625 0-53.332031-23.925781-53.332031-53.335938 0-29.40625 23.925781-53.332031 53.332031-53.332031s53.332031 23.925781 53.332031 53.332031c0 29.410157-23.925781 53.335938-53.332031 53.335938zm0-85.335938c-17.644531 0-32 14.359375-32 32 0 17.644531 14.355469 32 32 32s32-14.355469 32-32c0-17.640625-14.355469-32-32-32zm0 0" fill="#c68c2e" class="svgShape color000000-0 selectable"></path><path d="m348.875 306.207031-15.082031-15.082031 39.539062-39.539062v-27.585938h-234.664062v27.585938l39.539062 39.539062-15.082031 15.082031-42.667969-42.664062c-2.003906-1.996094-3.125-4.714844-3.125-7.542969v-42.667969c0-5.886719 4.78125-10.664062 10.667969-10.664062h256c5.898438 0 10.667969 4.777343 10.667969 10.664062v42.667969c0 2.828125-1.121094 5.546875-3.125 7.542969zm0 0" fill="#c68c2e" class="svgShape color000000-1 selectable"></path><path d="M170.667969 341.332031c-5.890625 0-10.667969-4.765625-10.667969-10.664062v-74.667969c0-5.886719 4.777344-10.667969 10.667969-10.667969 5.886719 0 10.664062 4.78125 10.664062 10.667969v74.667969c0 5.898437-4.777343 10.664062-10.664062 10.664062zm0 0M341.332031 341.332031c-5.898437 0-10.664062-4.765625-10.664062-10.664062v-74.667969c0-5.886719 4.765625-10.667969 10.664062-10.667969 5.898438 0 10.667969 4.78125 10.667969 10.667969v74.667969c0 5.898437-4.769531 10.664062-10.667969 10.664062zm0 0M298.667969 298.667969c-5.898438 0-10.667969-4.769531-10.667969-10.667969v-21.332031h-64v21.332031c0 5.898438-4.777344 10.667969-10.667969 10.667969-5.886719 0-10.664062-4.769531-10.664062-10.667969v-32c0-5.886719 4.777343-10.667969 10.664062-10.667969h85.335938c5.898437 0 10.664062 4.78125 10.664062 10.667969v32c0 5.898438-4.765625 10.667969-10.664062 10.667969zm0 0M490.667969 298.667969h-85.335938c-5.898437 0-10.664062-4.769531-10.664062-10.667969s4.765625-10.667969 10.664062-10.667969h85.335938v-256h-160c-5.898438 0-10.667969-4.777343-10.667969-10.664062 0-5.890625 4.769531-10.667969 10.667969-10.667969h160c11.765625 0 21.332031 9.566406 21.332031 21.332031v256c0 11.765625-9.566406 21.335938-21.332031 21.335938zm0 0M106.667969 298.667969h-85.335938c-11.765625 0-21.332031-9.570313-21.332031-21.335938v-256c0-11.765625 9.566406-21.332031 21.332031-21.332031h160c5.890625 0 10.667969 4.777344 10.667969 10.667969 0 5.886719-4.777344 10.664062-10.667969 10.664062h-160v256h85.335938c5.886719 0 10.664062 4.769531 10.664062 10.667969s-4.777343 10.667969-10.664062 10.667969zm0 0" fill="#c68c2e" class="svgShape color000000-2 selectable"></path></svg></g></svg>