<svg id="SvgjsSvg1488" width="288" height="288" xmlns="http://www.w3.org/2000/svg" version="1.1" xmlns:xlink="http://www.w3.org/1999/xlink" xmlns:svgjs="http://svgjs.com/svgjs"><defs id="SvgjsDefs1489"></defs><g id="SvgjsG1490"><svg xmlns="http://www.w3.org/2000/svg" viewBox="0 0 980 982" width="288" height="288"><path fill="#c68c2e" d="M0 0 C17.31832226 12.497203 27.91953456 33.9933171 38.5 52 C42.74975632 59.22649718 47.02563741 66.43350793 51.4375 73.5625 C52.14519531 74.73135742 52.14519531 74.73135742 52.8671875 75.92382812 C53.32222656 76.65150391 53.77726563 77.37917969 54.24609375 78.12890625 C54.63466553 78.75869385 55.0232373 79.38848145 55.42358398 80.03735352 C59.60326002 85.24107283 63.73461629 87.6368402 70.08984375 89.5078125 C71.12032082 89.81297287 71.12032082 89.81297287 72.1716156 90.1242981 C80.31616008 92.47848627 88.58294498 94.35944171 96.84454346 96.25030518 C157.29126988 110.14337393 157.29126988 110.14337393 168 124 C171.26278417 129.90563934 171.62344663 135.53646402 170 142 C164.13984392 161.54223721 149.4890721 177.11234587 136.43115234 192.33056641 C134.93569945 194.07500634 133.44600045 195.82424256 131.95703125 197.57421875 C127.44074341 202.8725292 122.90680339 208.13007663 118.1875 213.25 C109.97987989 222.30977739 105.55707515 228.75411869 106 241 C106.20471851 243.87959489 106.5113856 246.74152812 106.83984375 249.609375 C107.01797959 251.25360108 107.19552797 252.89789089 107.37255859 254.54223633 C107.46527039 255.3921817 107.55798218 256.24212708 107.65350342 257.11782837 C115.10943421 326.22179211 115.10943421 326.22179211 102.8125 343.4375 C96.45379389 349.23098779 90.1414178 350.69042288 81.625 350.375 C59.10567953 348.04541512 38.1025874 337.32614845 17.60986328 328.36791992 C-3.01955139 318.34438765 -3.01955139 318.34438765 -25.00708008 319.77709961 C-25.70599365 320.05690674 -26.40490723 320.33671387 -27.125 320.625 C-27.90576904 320.92349854 -28.68653809 321.22199707 -29.4909668 321.52954102 C-38.41475235 325.01984855 -47.14616521 328.98570888 -55.90597534 332.86447144 C-104.56076787 354.38438223 -104.56076787 354.38438223 -121.89453125 349.12109375 C-128.89268185 345.94202384 -133.04275983 341.49507174 -136.75 334.875 C-144.18669063 314.8531406 -139.5136401 290.15872328 -137.5 269.625 C-133.60997746 246.65870002 -133.60997746 246.65870002 -136.6171875 224.39453125 C-137.36226563 223.54246094 -138.10734375 222.69039062 -138.875 221.8125 C-139.69742188 220.84054687 -140.51984375 219.86859375 -141.3671875 218.8671875 C-142.67042969 217.44792969 -142.67042969 217.44792969 -144 216 C-144.82757813 215.07445312 -145.65515625 214.14890625 -146.5078125 213.1953125 C-148.17056966 211.35533358 -149.8464562 209.52713571 -151.53515625 207.7109375 C-153.94030881 205.06565085 -156.19810722 202.34876766 -158.4375 199.5625 C-161.56640322 195.6773995 -164.82843504 192.00453273 -168.25 188.375 C-182.00156225 173.63769766 -197.0709492 155.8102998 -199.4375 135.1875 C-198.42998317 127.84702024 -195.75904287 121.80095713 -190 117 C-182.10537355 111.67350504 -173.69520479 108.35586768 -164.6015625 105.63671875 C-163.60940231 105.33771164 -162.61724213 105.03870453 -161.59501648 104.7306366 C-149.7902553 101.24713532 -137.81194624 98.5295055 -125.8125 95.8125 C-122.45173247 95.04881053 -119.09163682 94.28254946 -115.733078 93.50920105 C-113.67182959 93.03475854 -111.60934846 92.5656221 -109.54536438 92.10322571 C-94.53047252 89.13883277 -94.53047252 89.13883277 -83.52539062 79.47998047 C-83.02201172 78.66158691 -82.51863281 77.84319336 -82 77 C-81.22172852 75.80914795 -81.22172852 75.80914795 -80.42773438 74.59423828 C-78.82562338 72.10777399 -77.28254079 69.59237082 -75.75 67.0625 C-75.19207764 66.15226074 -74.63415527 65.24202148 -74.05932617 64.30419922 C-71.38151537 59.93103723 -68.72413299 55.54554148 -66.06640625 51.16015625 C-35.85567427 1.35828655 -35.85567427 1.35828655 -19.5234375 -3.4453125 C-12.16256715 -5.06333663 -6.50331543 -3.5880361 0 0 Z M-17.5 30.44921875 C-25.3229417 42.12251456 -32.0054809 54.52849542 -38.7578125 66.83984375 C-63.33146055 111.6221608 -63.33146055 111.6221608 -81.50097656 117.85839844 C-84.27847838 118.66244007 -87.06639515 119.37481215 -89.875 120.0625 C-90.9690918 120.33924561 -92.06318359 120.61599121 -93.19042969 120.90112305 C-108.82595371 124.79360172 -124.55215931 128.33127462 -140.26123047 131.91235352 C-141.93422714 132.29444977 -141.93422714 132.29444977 -143.64102173 132.68426514 C-145.74981571 133.16546379 -147.85898682 133.64501378 -149.96859741 134.12261963 C-155.02840229 135.27718447 -160.02738846 136.51280318 -165 138 C-164.66216639 143.45812432 -161.37588875 146.6934376 -158 150.6875 C-157.41202637 151.39648438 -156.82405273 152.10546875 -156.21826172 152.8359375 C-151.61788359 158.35187 -146.85660458 163.70890794 -142 169 C-136.62414848 175.0369191 -131.37924184 181.19049483 -126.1328125 187.33984375 C-124.10089816 189.72050068 -122.05394412 192.08656341 -119.9921875 194.44140625 C-108.04010778 208.16952202 -103.60600848 218.16647547 -103.625 236.4375 C-103.6235498 237.0892923 -103.62209961 237.74108459 -103.62060547 238.41262817 C-103.62379902 251.74708102 -104.89561162 264.90754068 -106.28533936 278.15811157 C-107.75305688 292.1768907 -108.52581512 305.89062762 -108 320 C-98.11468418 316.01398556 -88.31399275 311.84900404 -78.54470825 307.5869751 C-67.88252062 302.9383596 -57.19676107 298.35753714 -46.4375 293.9375 C-44.84446045 293.27669434 -44.84446045 293.27669434 -43.21923828 292.60253906 C-27.96952557 286.38728972 -14.01863824 281.66330163 1.98046875 287.58984375 C2.71486679 287.85597977 3.44926483 288.12211578 4.20591736 288.39631653 C12.00065889 291.27698301 19.53211244 294.68474329 27.0625 298.1875 C28.49372196 298.84611106 29.92528686 299.50397732 31.35717773 300.16113281 C34.90771349 301.79243776 38.45455856 303.43157077 42 305.07391357 C46.15603315 306.99833652 50.31551027 308.91526897 54.47631836 310.8293457 C56.46566098 311.74509483 58.45357011 312.66396766 60.43969727 313.58666992 C70.39587794 318.96030831 70.39587794 318.96030831 81 319 C81.33 318.67 81.66 318.34 82 318 C81.97381959 315.25394416 81.87551115 312.54833413 81.71875 309.80859375 C81.67190063 308.96195663 81.62505127 308.11531952 81.57678223 307.24302673 C80.96160466 297.13672767 79.73517702 287.10819645 78.5 277.0625 C71.72789372 221.24319721 71.72789372 221.24319721 86.00390625 202.34765625 C90.89435402 196.24990653 96.13638114 190.49265545 101.44921875 184.765625 C103.48401883 182.55944053 105.47646238 180.33367739 107.4375 178.0625 C109.95093384 175.16008236 112.53562538 172.3330869 115.15258789 169.52368164 C120.01886699 164.29670808 124.81631114 159.01657858 129.5 153.625 C130.23802856 152.78751221 130.23802856 152.78751221 130.9909668 151.93310547 C134.21877097 148.18357411 136.65941528 144.36099512 139 140 C134.19746444 136.34823175 129.99266359 134.96004113 124.125 133.75 C123.20662354 133.54947021 122.28824707 133.34894043 121.34204102 133.14233398 C114.7092483 131.71715359 108.05234267 130.4151714 101.39453125 129.11328125 C42.96391691 117.68030718 42.96391691 117.68030718 33.1953125 104.29296875 C24.23409669 90.85114504 16.29401301 77.01422975 8.78137207 62.72647095 C-0.14543275 44.88124512 -0.14543275 44.88124512 -12 29 C-15.86816993 28.53678104 -15.86816993 28.53678104 -17.5 30.44921875 Z " transform="translate(504 318)" class="svgShape color090909-0 selectable"></path><path fill="#c68c2e" d="M0 0 C6.0003772 2.56486712 10.72759009 7.47037058 15.4375 11.87109375 C16.07849136 12.4699086 16.71948273 13.06872345 17.37989807 13.6856842 C27.12743522 22.86841627 36.50331683 32.43537025 45.9375 41.9375 C48.81979951 44.84036317 51.70279788 47.74251232 54.58973694 50.64076233 C56.36967074 52.42812277 58.14735972 54.2177227 59.92234802 56.00999451 C64.25188574 60.35714758 68.65254905 64.53680083 73.30613708 68.53544617 C75.29193167 70.252411 77.17731739 72.04809393 79.03515625 73.90234375 C79.69966797 74.56556641 80.36417969 75.22878906 81.04882812 75.91210938 C81.71333984 76.58048828 82.37785156 77.24886719 83.0625 77.9375 C83.73087891 78.60201172 84.39925781 79.26652344 85.08789062 79.95117188 C85.75111328 80.61568359 86.41433594 81.28019531 87.09765625 81.96484375 C87.68039307 82.5487085 88.26312988 83.13257324 88.86352539 83.73413086 C90.69365298 85.67509923 92.43368289 87.65511187 94.17276001 89.67672729 C97.74763459 93.76865344 101.50668471 97.62240116 105.37231445 101.43823242 C106.07238113 102.13362625 106.77244781 102.82902008 107.49372864 103.54548645 C108.99911017 105.04044376 110.50559386 106.53429193 112.01308632 108.02712059 C114.39908772 110.39094237 116.78096656 112.75884598 119.16166687 115.12800598 C125.92555666 121.85843506 132.69367812 128.58456401 139.47192383 135.30053711 C143.62961008 139.42060486 147.77997266 143.54792881 151.92571068 147.68001747 C153.50381787 149.25007204 155.08469743 150.81734514 156.66839027 152.38176537 C158.87739598 154.56432978 161.07698143 156.75598818 163.2746582 158.94995117 C163.92972351 159.59265961 164.58478882 160.23536804 165.25970459 160.89755249 C168.98279212 164.63730556 171.82946898 167.73148878 172.1171875 173.24609375 C171.3992099 179.74263298 169.34863286 183.51715954 164.8125 188.3125 C160.86717161 190.67969703 157.59858787 191.52187922 153 191 C141.48294269 186.32119547 131.25931736 173.4137674 122.73046875 164.66796875 C120.69392992 162.67804597 118.66059026 160.83638415 116.49879456 158.99461365 C111.19726894 154.37003589 106.25567129 149.39592564 101.28881836 144.41821289 C100.23517602 143.36592841 99.18132168 142.31385616 98.12727356 141.26197815 C95.28619441 138.42542754 92.4482511 135.58575942 89.61102748 132.74535298 C86.628954 129.76073212 83.6444236 126.77856964 80.66029358 123.79600525 C75.65120606 118.78873251 70.64422024 113.77936546 65.63842773 108.76879883 C59.86675562 102.99168543 54.09149011 97.21818307 48.3143453 91.4465428 C43.33731954 86.4740679 38.36226127 81.4996308 33.38881594 76.52357477 C30.42582386 73.55903076 27.4621772 70.59514961 24.49674797 67.63304329 C21.70781258 64.84701536 18.92137063 62.05851657 16.13676262 59.26816368 C15.11981411 58.24990291 14.10203231 57.23247351 13.0833168 56.21598053 C8.0028021 51.14552153 3.02676793 46.04749529 -1.63057613 40.5828619 C-3.29222086 38.66223368 -5.08263239 36.92060387 -6.9375 35.1875 C-19.3372093 22.7877907 -19.3372093 22.7877907 -19.9375 14.8125 C-19.52221698 9.8996235 -17.26090503 7.07547363 -13.921875 3.59375 C-9.65849454 0.05826377 -5.49262884 -1.04340261 0 0 Z " transform="translate(670 652)" class="svgShape color0b0b0b-1 selectable"></path><path fill="#c68c2e" d="M0 0 C5.31801733 1.90544346 8.41827634 4.93584975 11 10 C12.25209553 14.22582242 12.18765758 16.42715056 10.8125 20.625 C7.88949589 25.81482363 3.65856977 30.00495331 -0.44200134 34.270401 C-2.6622797 36.58935987 -4.86365971 38.92260088 -7.03907776 41.28367615 C-18.58231776 53.78778763 -30.63405553 65.78175172 -42.6715858 77.8059113 C-45.71889905 80.85065348 -48.76372733 83.89787928 -51.80897522 86.94468689 C-56.90967689 92.04719441 -62.01245322 97.14761996 -67.11645508 102.24682617 C-72.99826506 108.12317314 -78.8764328 114.00314506 -84.75276846 119.88496596 C-89.83156196 124.96830812 -94.91231463 130.04968593 -99.99468905 135.12944788 C-103.0161223 138.149331 -106.03689686 141.1698647 -109.05589104 144.19218636 C-111.88798952 147.02718999 -114.72255464 149.85970475 -117.55897903 152.6903801 C-118.59337226 153.72346086 -119.62693372 154.75737529 -120.65955925 155.79222298 C-125.75892119 160.90153983 -130.87961422 165.91405048 -136.379632 170.59307003 C-138.66410933 172.57663155 -140.72978455 174.74535992 -142.8125 176.9375 C-148.64158629 182.80245759 -154.74410418 188.65229966 -162.75 191.1875 C-168.40395423 190.86131033 -171.81940916 189.18059084 -175.8125 185.1875 C-179.12242956 180.36445978 -180.83943937 176.11655817 -179.83569527 170.16349697 C-176.04251499 160.34348916 -163.13668871 150.98829883 -155.75048828 143.60522461 C-154.32840552 142.18014404 -152.90652604 140.75486061 -151.48483276 139.32939148 C-147.64832543 135.4841057 -143.80863294 131.64201623 -139.96805429 127.80079722 C-137.56342813 125.39545733 -135.15951666 122.98940553 -132.75585556 120.58310127 C-124.35554813 112.17356255 -115.95268208 103.76659034 -107.54736328 95.36206055 C-99.7351243 87.55042256 -91.92848397 79.73322041 -84.12444127 71.91339487 C-77.40246327 65.17831133 -70.67660485 58.44711945 -63.94775188 51.71890455 C-59.93835439 47.70976106 -55.93049766 43.69910755 -51.926548 39.68452263 C-48.16019302 35.90843516 -44.38899798 32.13724757 -40.61415482 28.36964607 C-39.23667175 26.99320228 -37.86086485 25.61507849 -36.48694611 24.2350769 C-10.57053682 -1.78855091 -10.57053682 -1.78855091 0 0 Z " transform="translate(318 652)" class="svgShape color0a0a0a-2 selectable"></path><path fill="#c68c2e" d="M0 0 C5.56235306 2.70445442 9.96050018 6.68469955 14.17590332 11.14440918 C15.85259407 12.85004901 17.57427815 14.37880996 19.40429688 15.91601562 C24.91600474 20.70409121 30.01639382 25.90488806 35.15748596 31.08232117 C37.00615875 32.94392032 38.85807961 34.80223504 40.71081543 36.65979004 C45.30880408 41.27104913 49.90129439 45.88777148 54.49395752 50.5043335 C58.38635575 54.41655982 62.28086279 58.3266643 66.17811584 62.23405457 C67.99025805 64.05261291 69.79932843 65.87418796 71.60827637 67.69592285 C76.71639159 72.82652947 81.82194259 77.9112186 87.35803223 82.58679199 C91.55900648 86.20248443 95.34796172 90.19672805 98.921875 94.42578125 C103.65735322 99.85829398 108.78607248 104.89778501 113.89712524 109.97229004 C115.72512179 111.78735566 117.54982956 113.60567301 119.3737793 115.42480469 C123.24636422 119.28604185 127.12287734 123.14331996 131 127 C135.49794604 131.47423005 139.99420347 135.95013069 144.48623657 140.43029785 C146.27155545 142.20920255 148.05989139 143.98503396 149.84838867 145.76074219 C169.36051018 165.18399867 169.36051018 165.18399867 172 172.9375 C172 177.96335544 170.7090283 181.86140513 167.5546875 185.80859375 C163.91732165 189.33599273 160.40917085 191.13731855 155.30859375 191.34375 C147.37151653 190.16191786 141.03452211 182.53341384 135.46665955 177.26429749 C133.23681302 175.15964203 130.99578608 173.06854965 128.74049377 170.99119568 C116.51439854 159.68978101 104.76551405 147.91343429 93.00180507 136.13613057 C90.06917273 133.20092521 87.13405458 130.26820703 84.19935608 127.33506775 C79.28516262 122.42267951 74.37304984 117.50821819 69.4621582 112.5925293 C63.80393781 106.92884511 58.14209161 101.26880468 52.47839731 95.61059481 C47.58188971 90.71863663 42.68734749 85.82471844 37.7944203 80.92917913 C34.88631957 78.0195288 31.97756968 75.11053605 29.06702995 72.20332527 C26.33708489 69.47628652 23.60963131 66.74677936 20.88401413 64.01541519 C19.88963443 63.01972367 18.89442223 62.02486266 17.89827538 61.0309391 C12.91090321 56.05366655 8.03005852 51.04749491 3.46256351 45.67943478 C1.1403114 43.0128354 -1.39787445 40.58183936 -3.9375 38.125 C-19.07563649 23.16521102 -19.07563649 23.16521102 -20 15 C-19.13315842 9.97231886 -17.61146239 6.61146239 -14 3 C-9.56976154 0.08007011 -5.23350475 -1.16512332 0 0 Z " transform="translate(158 140)" class="svgShape color0a0a0a-3 selectable"></path><path fill="#c68c2e" d="M0 0 C4.60577858 2.12235686 8.02996772 5.29381178 10 10 C11.10574443 13.9026274 11.71260846 16.29297883 10.140625 20.05859375 C4.26311887 29.47989034 -4.42767753 37.56248587 -12.32644558 45.29448032 C-13.97065423 46.97009372 -15.48514579 48.7054288 -17.00343323 50.49534607 C-21.79445759 55.99709884 -26.9717021 61.11174135 -32.13256836 66.26196289 C-33.24396549 67.37471766 -34.35515035 68.48768448 -35.46614075 69.60084534 C-38.46384173 72.60307756 -41.46466399 75.60217117 -44.46622157 78.60054708 C-47.61900502 81.75078456 -50.76933172 84.90347737 -53.9200592 88.05577087 C-59.20980237 93.34732923 -64.50164098 98.63678513 -69.79467773 103.92504883 C-75.89898046 110.02391019 -81.99967258 116.12636543 -88.0985021 122.2306996 C-93.35123 127.48797719 -98.60591878 132.74328889 -103.8622275 137.99698633 C-106.99444582 141.12765207 -110.12599996 144.25897416 -113.25578117 147.39207649 C-116.1993987 150.33859976 -119.14548443 153.28263345 -122.09342766 156.22482872 C-123.16974096 157.29982884 -124.24522112 158.37566393 -125.319767 159.45243073 C-130.50480338 164.64718823 -135.70377942 169.77355758 -141.31023502 174.51833248 C-143.11320997 176.09926797 -144.77486512 177.77296113 -146.4375 179.5 C-156.90871797 190.01881442 -156.90871797 190.01881442 -163.125 191.125 C-168.09888355 190.96455214 -171.85047099 190.08843129 -175.51171875 186.53125 C-179.45943297 181.91615715 -180.62274685 178.74869574 -180.51171875 172.76171875 C-179.50344384 167.32011292 -175.63979055 163.9276912 -172 160 C-171.26084024 159.19856221 -171.26084024 159.19856221 -170.50674796 158.38093376 C-162.0827023 149.25677985 -153.4844667 140.33876171 -144.69580078 131.56640625 C-143.43559117 130.30483623 -142.17559319 129.04305478 -140.91578674 127.78108215 C-137.54452751 124.40532778 -134.17019035 121.03266691 -130.79508448 117.66075897 C-127.24061115 114.10884685 -123.68861158 110.55446216 -120.13619995 107.00048828 C-114.18211168 101.04459083 -108.22594071 95.09078234 -102.26855469 89.13818359 C-95.3978158 82.27290247 -88.5307101 75.40400297 -81.66544545 68.53324795 C-75.74166728 62.60492375 -69.81593275 56.67856034 -63.88857448 50.75381565 C-60.36074979 47.22754328 -56.83358841 43.70061455 -53.30820084 40.17190552 C-49.99924338 36.86004702 -46.6878255 33.55066801 -43.37454033 30.24313927 C-42.16437796 29.03429179 -40.95505206 27.82460624 -39.74665642 26.61399269 C-32.02285226 18.87732602 -24.17774465 11.45100756 -15.625 4.625 C-14.37589844 3.62339844 -14.37589844 3.62339844 -13.1015625 2.6015625 C-8.92925309 -0.5780785 -5.12023567 -0.74582811 0 0 Z " transform="translate(831 140)" class="svgShape color0a0a0a-4 selectable"></path><path fill="#c68c2e" d="M0 0 C1.98612585 1.73031 3.85919533 3.50348009 5.68359375 5.40234375 C6.01359375 5.73234375 6.34359375 6.06234375 6.68359375 6.40234375 C6.78370504 9.1585066 6.81798784 11.88968168 6.81057739 14.6463623 C6.81213738 15.52135297 6.81369737 16.39634364 6.81530464 17.29784918 C6.81931909 20.25392139 6.81612309 23.20994296 6.81298828 26.16601562 C6.81434228 28.27648448 6.81612221 30.3869531 6.81829834 32.49742126 C6.82287727 38.25245805 6.82108006 44.007477 6.81791925 49.76251411 C6.81539272 55.78841323 6.81773451 61.81431079 6.81930542 67.84020996 C6.82112849 77.97892531 6.81871955 88.1176334 6.81396484 98.25634766 C6.8085454 109.9468105 6.81026737 121.63725585 6.81579125 133.32771826 C6.82034656 143.37293315 6.82096042 153.41814281 6.81835258 163.4633584 C6.81680005 169.45823611 6.81656734 175.45310562 6.81988907 181.44798279 C6.82280212 187.10156116 6.82072968 192.75511731 6.81499481 198.40869331 C6.81368447 200.47207668 6.81403156 202.53546195 6.81625748 204.59884453 C6.8544597 243.64815812 6.8544597 243.64815812 2.02734375 249.36328125 C1.1146875 250.06324219 1.1146875 250.06324219 0.18359375 250.77734375 C-0.7290625 251.50050781 -0.7290625 251.50050781 -1.66015625 252.23828125 C-5.36466715 254.84192334 -8.91351908 255.08089729 -13.31640625 254.40234375 C-19.16252274 251.99328687 -21.79376684 249.21819199 -24.31640625 243.40234375 C-24.82022858 240.30756378 -24.82022858 240.30756378 -24.98986816 236.9005127 C-25.02281054 236.25950764 -25.05575292 235.61850259 -25.08969355 234.95807314 C-25.52469252 225.45758005 -25.50666936 215.93990303 -25.54101562 206.43164062 C-25.552215 204.25361983 -25.56372899 202.07560063 -25.57553101 199.89758301 C-25.61175805 192.80544347 -25.637239 185.71328744 -25.66015625 178.62109375 C-25.66410212 177.41118586 -25.66804798 176.20127796 -25.67211342 174.95470619 C-25.70846923 163.53563282 -25.73987871 152.1165529 -25.76122284 140.6974411 C-25.78887237 126.12719818 -25.83986968 111.55743773 -25.92169714 96.98739576 C-25.97742184 86.71701006 -26.00644734 76.4467558 -26.01569605 66.17622423 C-26.02195469 60.04972779 -26.04009406 53.92380094 -26.08708191 47.79747009 C-26.13067102 42.04500384 -26.1412603 36.29342053 -26.1264534 30.54081726 C-26.12678254 28.43125706 -26.13909653 26.32165939 -26.16430283 24.21224976 C-26.1969192 21.33081774 -26.18627861 18.45263207 -26.16491699 15.57116699 C-26.18462476 14.73799816 -26.20433253 13.90482932 -26.22463751 13.04641294 C-26.13585271 8.30033258 -25.3139827 5.88011251 -21.97431183 2.4230423 C-15.93967874 -3.07782219 -6.96525373 -4.80402829 0 0 Z " transform="translate(499.316 727.598)" class="svgShape color080808-5 selectable"></path><path fill="#c68c2e" d="M0 0 C4.05587938 2.00100311 8.13919388 4.44719948 11 8 C20.38882666 42.04189994 13.4129887 87.19674383 13.49662876 122.2235508 C13.53002737 135.96573777 13.59006196 149.70727639 13.68413979 163.44918501 C13.74838694 173.16350965 13.7821485 182.87765641 13.79337829 192.59218538 C13.80093149 198.37769367 13.82206537 204.1624075 13.87640572 209.94768143 C13.92677345 215.37041999 13.93946874 220.79194075 13.92315483 226.21487617 C13.92375886 228.20190671 13.93805163 230.18898779 13.96710205 232.17580605 C14.17465234 247.15187654 14.17465234 247.15187654 11.26243401 251.73377609 C6.46601059 256.09496903 1.78319021 257.35776846 -4.5859375 257.28515625 C-9.48980989 256.70589624 -13.20254238 254.34786922 -17.08352947 251.43761253 C-19.77195175 248.01813295 -19.5458869 244.90148433 -19.48774719 240.73257446 C-19.49187046 239.89121677 -19.49599372 239.04985907 -19.50024194 238.18300569 C-19.5091852 235.35816535 -19.48949531 232.53424916 -19.4699707 229.70947266 C-19.47047944 227.68548978 -19.47273478 225.6615067 -19.47660828 223.63752747 C-19.48204005 218.13013272 -19.46257205 212.62307293 -19.43850732 207.11573839 C-19.41720442 201.33777949 -19.417805 195.55982177 -19.41581726 189.78182983 C-19.40936098 180.05859634 -19.38809886 170.33548821 -19.35668945 160.61230469 C-19.31661502 148.19162474 -19.29903025 135.77102704 -19.28938007 123.3502903 C-19.28101972 112.62323699 -19.26379229 101.89620058 -19.24434257 91.16916227 C-19.24031235 88.8801489 -19.23657002 86.59113501 -19.2331202 84.30212069 C-19.22321738 77.75242062 -19.20850342 71.20276754 -19.1862812 64.65309715 C-19.18025206 62.68211856 -19.17575145 60.71113449 -19.17303848 58.74014854 C-19.10120459 10.95197753 -19.10120459 10.95197753 -14.67578125 5.3125 C-13.125 3.9375 -13.125 3.9375 -10 2 C-9.34 1.566875 -8.68 1.13375 -8 0.6875 C-5.04098178 -0.32966251 -3.13165122 -0.42156843 0 0 Z " transform="translate(493)" class="svgShape color090909-6 selectable"></path><path fill="#c68c2e" d="M0 0 C13.30327055 -0.15130064 26.6064261 -0.26710388 39.91032887 -0.34589481 C47.20284069 -0.39004221 54.49453172 -0.44985319 61.78652954 -0.54837036 C68.70530199 -0.6417727 75.6230775 -0.68886305 82.54245567 -0.70541191 C85.10928155 -0.71906427 87.67607717 -0.7483056 90.24253273 -0.793993 C93.77035091 -0.85435471 97.2940414 -0.85885067 100.82226562 -0.84960938 C102.36560813 -0.89579328 102.36560813 -0.89579328 103.94012928 -0.94291019 C108.22605859 -0.88086568 110.85004345 -0.76675223 114.12356186 2.15581131 C118.45491815 7.57190809 120.28333002 11.92244496 120.20458984 18.84033203 C119.63551538 23.52545193 117.07902775 26.61239335 114.32330513 30.35672283 C110.81834636 33.02679475 107.43659283 32.73148748 103.20748901 32.67573547 C102.31838998 32.67985874 101.42929095 32.683982 100.51324952 32.68823022 C97.52707642 32.69717621 94.54177682 32.67748071 91.55566406 32.65795898 C89.41681817 32.65846769 87.27797208 32.66072277 85.13912964 32.66459656 C79.320037 32.67002815 73.50126135 32.6505635 67.6822257 32.6264956 C61.58341803 32.6052059 55.48461163 32.60579403 49.38577271 32.60380554 C39.12789462 32.59735009 28.87013541 32.57608639 18.61230469 32.54467773 C5.48948316 32.50454685 -7.6332605 32.48701137 -20.75613594 32.47736835 C-32.07239831 32.46902493 -43.38864453 32.45179403 -54.70489264 32.43233085 C-57.1241951 32.42829501 -59.54349808 32.42455349 -61.96280146 32.42110848 C-68.87838684 32.41123846 -75.79392715 32.39658646 -82.7094841 32.37426949 C-84.79502202 32.36821395 -86.88056526 32.36372733 -88.96611023 32.36102676 C-98.67813946 32.34728628 -108.38704962 32.27465044 -118.09152222 31.86442566 C-118.81477916 31.84262719 -119.5380361 31.82082873 -120.28320992 31.79836971 C-126.19314854 31.49651409 -130.31209051 30.00300302 -134.45556641 25.75048828 C-136.83099385 20.54282042 -137.10320353 15.81249245 -136.08056641 10.18798828 C-134.10562212 6.64753938 -131.72042461 4.00791738 -128.08056641 2.18798828 C-117.4557375 0.9514996 -106.71147403 0.97974352 -96.02978516 0.87158203 C-94.22718546 0.85035732 -92.42458848 0.82890087 -90.62199402 0.80723572 C-73.65241276 0.61020122 -56.68195691 0.47976962 -39.71166992 0.36108398 C-26.47404524 0.2676453 -13.23707411 0.15070792 0 0 Z " transform="translate(136.08 474.812)" class="svgShape color080808-7 selectable"></path><path fill="#c68c2e" d="M0 0 C1.09395081 -0.00281982 2.18790161 -0.00563965 3.31500244 -0.00854492 C5.11872818 -0.00550858 5.11872818 -0.00550858 6.95889282 -0.00241089 C8.22684692 -0.00416321 9.49480103 -0.00591553 10.80117798 -0.00772095 C14.3008619 -0.01230086 17.80051647 -0.01049647 21.30020094 -0.00734186 C25.02461793 -0.00478976 28.7490326 -0.00716654 32.47344971 -0.00872803 C38.79054198 -0.01055453 45.10762263 -0.00814448 51.42471313 -0.00338745 C57.77758561 0.00134381 64.13043455 0.00153487 70.48330688 -0.00338745 C112.24505501 -0.0349366 153.98088242 0.27229354 195.73477173 1.12698364 C196.74867729 1.14760046 197.76258286 1.16821728 198.80721283 1.18945885 C231.28262771 1.85158173 231.28262771 1.85158173 235.73477173 4.12698364 C239.6614471 9.11492262 240.37231445 13.23194427 240.12149048 19.53713989 C239.41926 24.2399561 237.31383715 26.94111165 233.58541489 29.74114227 C229.99174125 31.48820822 226.73243868 31.68456477 222.8119812 31.80044556 C222.02634867 31.83338793 221.24071614 31.86633031 220.43127656 31.90027094 C210.45860944 32.28014957 200.4779789 32.31520689 190.49942017 32.35159302 C188.32918646 32.36279911 186.15895434 32.37431325 183.98872375 32.3861084 C176.94055483 32.42224293 169.89236965 32.44779684 162.84414673 32.47073364 C161.64088273 32.47467951 160.43761873 32.47862537 159.19789219 32.48269081 C147.83954792 32.51902922 136.48119697 32.55042944 125.12281418 32.57180023 C110.63890415 32.59947087 96.15547823 32.6505317 81.67176986 32.73227453 C71.45569131 32.78797711 61.23974483 32.81702099 51.02351975 32.82627344 C44.93119225 32.83253305 38.83943737 32.85068254 32.74727631 32.8976593 C27.03088592 32.94121194 21.31538397 32.95184911 15.59885597 32.93703079 C13.50177342 32.93736019 11.40465342 32.94969432 9.30772209 32.97488022 C6.44579607 33.00744577 3.58714706 32.99687865 0.72518921 32.97549438 C-0.10495516 32.99520216 -0.93509953 33.01490993 -1.79039979 33.0352149 C-5.23296753 32.97020282 -7.39925746 32.84615078 -10.10417318 30.5997858 C-13.88048252 26.28698967 -15.9880532 22.57536347 -16.64022827 16.81448364 C-16.06441451 11.15231498 -13.85626433 7.00729899 -10.20272827 2.68948364 C-6.92011277 0.04221308 -4.06174949 0.00161128 0 0 Z " transform="translate(740.265 474.873)" class="svgShape color060606-8 selectable"></path><path fill="#c68c2e" d="M0 0 C0.66 0.33 1.32 0.66 2 1 C-1.63 4.63 -5.26 8.26 -9 12 C-9 8.47601214 -8.44884893 7.98495633 -6.1875 5.4375 C-5.40439453 4.53837891 -5.40439453 4.53837891 -4.60546875 3.62109375 C-3 2 -3 2 0 0 Z " transform="translate(317 433)" class="svgShape color656565-9 selectable"></path></svg></g></svg>