<svg id="SvgjsSvg1037" width="288" height="288" xmlns="http://www.w3.org/2000/svg" version="1.1" xmlns:xlink="http://www.w3.org/1999/xlink" xmlns:svgjs="http://svgjs.com/svgjs"><defs id="SvgjsDefs1038"></defs><g id="SvgjsG1039"><svg xmlns="http://www.w3.org/2000/svg" enable-background="new 0 0 48 48" viewBox="0 0 48 48" width="288" height="288"><path d="m47.5 15.7-10.3-5.7v-7.5c0-.6-.4-1-1-1h-24.4c-.6 0-1 .4-1 1v7.5l-10.3 5.7c-.3.2-.5.5-.5.9v28.9c0 .6.4 1 1 1h46c.6 0 1-.4 1-1v-28.9c0-.4-.2-.7-.5-.9zm-12.3-12.2v40.9h-5v-10.1c0-.6-.4-1-1-1h-9.6c-.6 0-1 .4-1 1v10.2h-5.7c0-5.8 0-30.7 0-40.9h22.3zm-33.2 13.6 8.8-4.8v32.1h-8.8zm18.5 27.4v-9.2h7.6v9.2zm25.5 0h-8.8v-32.2l8.8 4.8z" fill="#c68c2e" class="svgShape color000000-0 selectable"></path><path d="M5.4 21.2h2c.6 0 1-.4 1-1s-.4-1-1-1h-2c-.6 0-1 .4-1 1s.5 1 1 1zM7.4 24.1h-2c-.6 0-1 .4-1 1s.4 1 1 1h2c.6 0 1-.4 1-1s-.4-1-1-1zM7.4 29h-2c-.6 0-1 .4-1 1s.4 1 1 1h2c.6 0 1-.4 1-1s-.4-1-1-1zM7.4 33.8h-2c-.6 0-1 .4-1 1s.4 1 1 1h2c.6 0 1-.4 1-1 0-.5-.4-1-1-1zM7.4 38.7h-2c-.6 0-1 .4-1 1s.4 1 1 1h2c.6 0 1-.4 1-1 0-.5-.4-1-1-1zM40.6 21.2h2c.6 0 1-.4 1-1s-.4-1-1-1h-2c-.6 0-1 .4-1 1s.4 1 1 1zM40.6 26.1h2c.6 0 1-.4 1-1s-.4-1-1-1h-2c-.6 0-1 .4-1 1 0 .5.4 1 1 1zM40.6 31h2c.6 0 1-.4 1-1s-.4-1-1-1h-2c-.6 0-1 .4-1 1 0 .5.4 1 1 1zM40.6 35.8h2c.6 0 1-.4 1-1s-.4-1-1-1h-2c-.6 0-1 .4-1 1s.4 1 1 1zM40.6 40.7h2c.6 0 1-.4 1-1s-.4-1-1-1h-2c-.6 0-1 .4-1 1s.4 1 1 1zM16.6 8.7h2c.6 0 1-.4 1-1s-.4-1-1-1h-2c-.6 0-1 .4-1 1s.4 1 1 1zM23.2 8.7h2c.6 0 1-.4 1-1s-.4-1-1-1h-2c-.6 0-1 .4-1 1s.4 1 1 1zM29.7 8.7h2c.6 0 1-.4 1-1s-.4-1-1-1h-2c-.6 0-1 .4-1 1s.5 1 1 1zM16.6 14h2c.6 0 1-.4 1-1s-.4-1-1-1h-2c-.6 0-1 .4-1 1 0 .5.4 1 1 1zM23.2 14h2c.6 0 1-.4 1-1s-.4-1-1-1h-2c-.6 0-1 .4-1 1 0 .5.4 1 1 1zM29.7 14h2c.6 0 1-.4 1-1s-.4-1-1-1h-2c-.6 0-1 .4-1 1 0 .5.5 1 1 1zM16.6 19.2h2c.6 0 1-.4 1-1s-.4-1-1-1h-2c-.6 0-1 .4-1 1s.4 1 1 1zM23.2 19.2h2c.6 0 1-.4 1-1s-.4-1-1-1h-2c-.6 0-1 .4-1 1s.4 1 1 1zM29.7 19.2h2c.6 0 1-.4 1-1s-.4-1-1-1h-2c-.6 0-1 .4-1 1s.5 1 1 1zM16.6 24.5h2c.6 0 1-.4 1-1s-.4-1-1-1h-2c-.6 0-1 .4-1 1 0 .5.4 1 1 1zM23.2 24.5h2c.6 0 1-.4 1-1s-.4-1-1-1h-2c-.6 0-1 .4-1 1 0 .5.4 1 1 1zM29.7 24.5h2c.6 0 1-.4 1-1s-.4-1-1-1h-2c-.6 0-1 .4-1 1 0 .5.5 1 1 1zM16.6 29.7h2c.6 0 1-.4 1-1s-.4-1-1-1h-2c-.6 0-1 .4-1 1 0 .5.4 1 1 1zM23.2 29.7h2c.6 0 1-.4 1-1s-.4-1-1-1h-2c-.6 0-1 .4-1 1 0 .5.4 1 1 1zM29.7 29.7h2c.6 0 1-.4 1-1s-.4-1-1-1h-2c-.6 0-1 .4-1 1 0 .5.5 1 1 1z" fill="#c68c2e" class="svgShape color000000-1 selectable"></path></svg></g></svg>