<svg id="SvgjsSvg1032" width="288" height="288" xmlns="http://www.w3.org/2000/svg" version="1.1" xmlns:xlink="http://www.w3.org/1999/xlink" xmlns:svgjs="http://svgjs.com/svgjs"><defs id="SvgjsDefs1033"></defs><g id="SvgjsG1034"><svg xmlns="http://www.w3.org/2000/svg" viewBox="0 0 60 60" width="288" height="288"><path d="m13 42.75v10.25c0 1.65 1.35 3 3 3h28c1.65 0 3-1.35 3-3v-10.25c2.9-.93 13-5.01 13-16.75 0-7.17-5.83-13-13-13-.27 0-.55 0-.83.03-3.45-5.58-9.58-9.03-16.17-9.03s-12.72 3.44-16.17 9.03c-.28-.02-.56-.03-.83-.03-7.17 0-13 5.83-13 13 0 11.74 10.1 15.82 13 16.75zm32 10.25c0 .55-.45 1-1 1h-28c-.55 0-1-.45-1-1v-10h30zm-32.23-37.99c-.14.3-.28.6-.39.89-.2.51.05 1.09.56 1.3.12.05.24.07.37.07.4 0 .78-.24.93-.63.27-.67.6-1.37 1-2.06 3.02-5.29 8.68-8.58 14.76-8.58s11.74 3.29 14.76 8.57c.39.69.73 1.38 1 2.06.16.39.53.63.93.63.12 0 .25-.02.37-.07.51-.2.76-.78.56-1.3-.12-.3-.25-.59-.39-.89 5.96.12 10.77 5 10.77 10.99 0 11.57-10.85 14.68-12.12 15h-4.14c4.43-3.29 5.21-7.62 5.25-7.84.09-.54-.28-1.06-.82-1.15-.54-.1-1.06.28-1.15.82 0 .05-.97 5.39-7.24 8.16h-6.78v-7c0-.55-.45-1-1-1s-1 .45-1 1v7h-6.78c-6.22-2.75-7.2-7.95-7.24-8.17-.09-.54-.6-.92-1.15-.82-.54.09-.91.61-.82 1.15.04.22.82 4.54 5.25 7.84h-4.14c-1.17-.31-12.12-3.52-12.12-15 0-5.99 4.81-10.87 10.77-10.99z" fill="#c68c2e" class="svgShape color000000-0 selectable"></path></svg></g></svg>