<svg id="SvgjsSvg1050" width="288" height="288" xmlns="http://www.w3.org/2000/svg" version="1.1" xmlns:xlink="http://www.w3.org/1999/xlink" xmlns:svgjs="http://svgjs.com/svgjs"><defs id="SvgjsDefs1051"></defs><g id="SvgjsG1052"><svg xmlns="http://www.w3.org/2000/svg" enable-background="new 0 0 64 64" viewBox="0 0 64 64" width="288" height="288"><path d="m61 13h-7.3476563v-5c0-.5522461-.4477539-1-1-1h-9.3916016c-.5522461 0-1 .4477539-1 1v5h-10.5214843v-5c0-.5522461-.4477539-1-1-1h-9.3916016c-.5522461 0-1 .4477539-1 1v5h-7.3476562c-.5522461 0-1 .4477539-1 1v5c.0221272 1.3130341 1.9775362 1.3154259 1.9999981-.0000439.0000019.0000439.0000019-3.9999561.0000019-3.9999561h46v6h-24.9995117c-.5522461 0-1 .4477539-1 1s.4477539 1 1 1h24.9995117v22h-9.4345703c-.5522461 0-1 .4472656-1 1v9h-35.5654297v-6c0-.5527344-.4477539-1-1-1s-1 .4472656-1 1v7c0 .5527344.4477539 1 1 1h37.5654297c.2674446.009449.5055771-.1320076.706543-.2923584.0003052-.0003052.0005493-.0004883.0008545-.0007935l10.4190674-9.9851685c.1903267-.1990738.2851257-.4521065.3080826-.7216911.0000228.0000115.0000228-23.9999885.0000228-23.9999885v-8c0-.5522461-.4477539-1-1-1zm-38.6523437 0v-4h7.3916016v4zm21.9130859 0v-4h7.3916016v4zm7.3046875 40.65625v-6.65625h6.9458008z" fill="#c68c2e" class="svgShape color000000-0 selectable"></path><path d="M15.434082 39.9628906l-.177124-1.0808105c.0774012.0156364 12.610117 3.0648117 12.6776123 3.0720215 2.0864258.4024048 2.9838543-2.1954727 3.5015869-7.1072998 5.7319183-.4373283 5.7204704-8.6705112.0009155-9.1253052-.5315495-4.9952106-1.4455128-7.70298-3.6748657-7.086731l-17.3167725 4.199707c-.0003662.000061-.0007324-.000061-.0010986 0l-7.6791992 1.8569336c-.4492187.1088868-.7651367.510254-.7651367.972168v9.2133789c0 .4609375.3149414.8623047.762207.9716797l2.8334961.6883545 2.3227539 8.6339111c.1679688.6367188.5771484 1.1699219 1.1523438 1.5.5757523.3311729 1.2448521.4162788 1.878418.2412109 3.0644531-.8183593 4.9926757-3.8046874 4.4848632-6.9492187zm18.3325196-9.6791992c.0247726 1.2421627-.9646149 2.3880157-2.1845703 2.5566406.0769634-1.7216301.0937748-3.4201107.0004883-5.1132813 1.2358398.194336 2.184082 1.2670899 2.184082 2.5566407zm-5.5419922-9.703125c1.181488 1.4623585 1.6829338 9.7425404 1.3149414 12.9545898-.2029591 3.4943237-.9747486 6.0801163-1.3193359 6.4335938l-13.9407959-3.381897c-.0198135-.0140419-2.5780296-.6226349-2.6002197-.6312256v-11.3623657zm-24.2246094 5.8701172l5.6791992-1.3735352v10.3953247l-.1254883-.0303345-5.5537109-1.3503417zm6.4306641 18.5307617c-.003418 0-.0063477.0009766-.0092773.0019531-.3089323.0420189-.4514542-.0369186-.5703354-.3271103.0000229-.0000381-2.0385556-7.5771866-2.0385556-7.5771866l2.5397382.6133423.0921021.0223999c.0003052.000061.0006714.000061.0009766.0001221l2.7011719.6552124.3134766 1.9140015c.3432615 2.1259766-.9594729 4.1445312-3.0292971 4.6972656zM27 44c-1.310112.0206451-1.317873 1.9777412.0000458 1.9999962-.0000458.0000038 13.9999542.0000038 13.9999542.0000038 1.310112-.0206451 1.3178711-1.9777412-.0000458-1.9999962.0000458-.0000038-13.9999542-.0000038-13.9999542-.0000038zM41 49h-10c-1.3114185.0210457-1.3167992 1.9778671.0000458 1.9999962-.0000458.0000038 9.9999542.0000038 9.9999542.0000038 1.3114204-.0210457 1.3167992-1.9778671 0-2zM50 39c.5522461 0 1-.4472656 1-1v-8c0-.5522461-.4477539-1-1-1h-8c-.5522461 0-1 .4477539-1 1v8c0 .5527344.4477539 1 1 1zm-7-8h6v6h-6z" fill="#c68c2e" class="svgShape color000000-1 selectable"></path></svg></g></svg>