<svg id="SvgjsSvg1502" width="288" height="288" xmlns="http://www.w3.org/2000/svg" version="1.1" xmlns:xlink="http://www.w3.org/1999/xlink" xmlns:svgjs="http://svgjs.com/svgjs"><defs id="SvgjsDefs1503"></defs><g id="SvgjsG1504"><svg xmlns="http://www.w3.org/2000/svg" viewBox="0 0 2836 2836" width="288" height="288"><path fill="#c68c2e" d="M 2160 768.898438 L 1938.71875 872.980469 C 1938.148438 873.269531 1937.730469 873.78125 1937.519531 874.371094 C 1937.28125 875.019531 1937.289062 875.75 1937.601562 876.398438 L 2221.121094 1479.148438 C 2221.398438 1479.738281 2221.921875 1480.179688 2222.53125 1480.398438 C 2223.179688 1480.640625 2223.910156 1480.628906 2224.558594 1480.320312 L 2445.851562 1376.230469 C 2446.421875 1375.949219 2446.839844 1375.441406 2447.050781 1374.851562 C 2447.28125 1374.199219 2447.269531 1373.46875 2446.96875 1372.820312 L 2163.449219 770.070312 C 2163.171875 769.46875 2162.640625 769.039062 2162.03125 768.820312 C 2161.378906 768.578125 2160.648438 768.589844 2160 768.898438 Z M 1932.308594 958.578125 C 1931.710938 958.890625 1931.089844 959.171875 1930.449219 959.421875 C 1853.109375 989.988281 1809.398438 951.53125 1755.230469 903.859375 C 1746.75 896.398438 1755.390625 903.898438 1746.089844 895.769531 C 1724.160156 876.609375 1698.039062 860.71875 1665.988281 848.800781 C 1633.390625 836.679688 1594.5 828.628906 1547.5 825.390625 C 1501.78125 822.25 1457.890625 825.140625 1416.828125 837.300781 C 1376.269531 849.308594 1338.128906 870.5 1303.261719 904.070312 L 977.097656 1218.910156 C 967.007812 1228.640625 964.367188 1240.238281 967.96875 1251.21875 C 970.953125 1260.328125 977.875 1269.511719 988.214844 1277.75 C 999.609375 1286.820312 1014.859375 1294.460938 1033.429688 1299.488281 C 1097.820312 1316.941406 1198.449219 1302.589844 1314.359375 1210.800781 L 1381.921875 1157.289062 C 1388.460938 1152.121094 1397.230469 1151.71875 1404.050781 1155.589844 L 1404.058594 1155.570312 L 2052.210938 1523.671875 L 2152.460938 1426.589844 Z M 2170.359375 1464.660156 L 2086.21875 1546.140625 L 2100.089844 1556.230469 C 2101.460938 1557.230469 2102.828125 1558.300781 2104.179688 1559.429688 C 2124.171875 1576.121094 2134.398438 1601.828125 2135.199219 1629.089844 C 2135.949219 1655.058594 2128.070312 1682.769531 2111.839844 1705.070312 C 2111.511719 1705.539062 2111.148438 1705.980469 2110.789062 1706.398438 C 2109.359375 1708.328125 2108.121094 1709.929688 2107.070312 1711.191406 C 2096.628906 1723.691406 2076.761719 1738.871094 2052.019531 1746.679688 C 2041.800781 1749.910156 2030.691406 1751.941406 2018.960938 1752.121094 C 2020.320312 1771.511719 2016.710938 1790.191406 2009.269531 1807.210938 C 2001.769531 1824.328125 1990.429688 1839.625 1976.421875 1852.085938 C 1962.460938 1864.503906 1945.800781 1874.214844 1927.601562 1880.214844 C 1906.480469 1887.179688 1883.261719 1889.183594 1859.75 1884.683594 C 1858.488281 1907.539062 1850.851562 1928.699219 1838.710938 1946.769531 C 1828.960938 1961.273438 1816.328125 1973.726562 1801.808594 1983.382812 C 1787.300781 1993.035156 1770.839844 1999.960938 1753.441406 2003.414062 C 1731.929688 2007.683594 1709 2006.671875 1686.511719 1999.019531 C 1684.511719 2017.546875 1677.878906 2034.558594 1667.890625 2049.371094 C 1658.589844 2063.164062 1646.359375 2074.960938 1632.269531 2084.195312 C 1618.351562 2093.324219 1602.539062 2099.972656 1585.890625 2103.585938 C 1552.398438 2110.851562 1515.410156 2105.882812 1483.25 2084.1875 C 1466.011719 2072.5625 1449.988281 2061.050781 1434.308594 2049.777344 C 1423.199219 2041.785156 1412.261719 2033.929688 1398.851562 2024.734375 L 1390.070312 2039.539062 C 1377.039062 2061.492188 1356.011719 2076.742188 1332.609375 2083.621094 C 1309.25 2090.492188 1283.359375 2089.035156 1260.601562 2077.601562 L 1260.539062 2077.574219 C 1258.171875 2076.382812 1256.269531 2075.363281 1254.851562 2074.515625 C 1234.730469 2062.585938 1221.039062 2044.144531 1214.988281 2023.394531 C 1213.308594 2017.625 1212.21875 2011.679688 1211.761719 2005.65625 C 1207.570312 2007.410156 1203.28125 2008.933594 1198.921875 2010.214844 C 1170.71875 2018.511719 1139.480469 2016.765625 1112.039062 2002.980469 L 1111.988281 2002.953125 C 1109.21875 2001.5625 1106.941406 2000.328125 1105.128906 1999.261719 C 1080.988281 1984.933594 1064.550781 1962.8125 1057.289062 1937.929688 C 1056.128906 1933.933594 1055.199219 1929.867188 1054.519531 1925.753906 C 1045.898438 1930.777344 1036.691406 1934.734375 1027.148438 1937.539062 C 998.949219 1945.835938 967.714844 1944.089844 940.277344 1930.308594 L 940.222656 1930.277344 C 937.449219 1928.882812 935.160156 1927.652344 933.363281 1926.585938 C 909.214844 1912.257812 892.78125 1890.140625 885.523438 1865.257812 C 883.046875 1856.761719 881.652344 1847.953125 881.390625 1839.03125 C 876.964844 1840.917969 872.433594 1842.542969 867.828125 1843.898438 C 839.617188 1852.191406 808.386719 1850.449219 780.949219 1836.664062 L 780.894531 1836.636719 C 778.121094 1835.238281 775.832031 1834.011719 774.035156 1832.941406 C 749.886719 1818.621094 733.453125 1796.488281 726.199219 1771.621094 C 718.96875 1746.828125 720.933594 1719.378906 733.546875 1694.269531 C 734.933594 1691.511719 736.1875 1689.179688 737.289062 1687.320312 L 785.796875 1605.570312 C 768.800781 1586.511719 756.816406 1567.011719 745.082031 1547.910156 C 725.574219 1516.160156 706.8125 1485.628906 665.847656 1465.078125 L 651.308594 1495.988281 C 646.335938 1506.570312 637.503906 1514.140625 627.289062 1517.820312 C 617.109375 1521.488281 605.53125 1521.289062 595.007812 1516.339844 L 373.773438 1412.269531 C 363.195312 1407.300781 355.621094 1398.46875 351.941406 1388.25 C 348.839844 1379.640625 348.503906 1370.03125 351.476562 1360.890625 L 351.476562 1360.121094 L 636.949219 753.230469 C 641.921875 742.648438 650.753906 735.078125 660.96875 731.398438 C 671.144531 727.730469 682.726562 727.929688 693.25 732.878906 L 914.484375 836.941406 C 925.058594 841.921875 932.636719 850.75 936.316406 860.960938 C 939.421875 869.578125 939.753906 879.191406 936.78125 888.320312 L 936.78125 889.101562 L 920.734375 923.21875 C 1018.101562 938.78125 1081.050781 913.980469 1144.390625 889.011719 C 1193.738281 869.558594 1243.320312 850.019531 1309.300781 846.941406 C 1339.640625 824.570312 1371.871094 809.089844 1405.601562 799.089844 C 1451.609375 785.46875 1500.078125 782.191406 1550.148438 785.628906 C 1600.96875 789.128906 1643.578125 798.039062 1679.859375 811.539062 C 1716.691406 825.230469 1746.851562 843.609375 1772.289062 865.839844 L 1781.570312 873.941406 C 1781.230469 873.621094 1780.75 873.199219 1781.578125 873.929688 C 1825.480469 912.558594 1860.921875 943.738281 1915.328125 922.488281 L 1899.628906 889.101562 L 1899.628906 888.320312 C 1896.660156 879.191406 1896.988281 869.578125 1900.089844 860.960938 C 1903.769531 850.75 1911.351562 841.921875 1921.929688 836.941406 L 1926.070312 834.988281 L 2143.160156 732.878906 C 2153.691406 727.929688 2165.269531 727.730469 2175.441406 731.398438 C 2185.660156 735.078125 2194.488281 742.648438 2199.460938 753.230469 L 2484.929688 1360.121094 L 2484.929688 1360.890625 C 2487.910156 1370.03125 2487.570312 1379.640625 2484.46875 1388.25 C 2480.789062 1398.46875 2473.210938 1407.300781 2462.640625 1412.269531 L 2241.398438 1516.339844 C 2230.878906 1521.289062 2219.300781 1521.488281 2209.121094 1517.820312 C 2198.910156 1514.140625 2190.078125 1506.570312 2185.101562 1495.988281 Z M 2044.328125 1564.960938 L 1396.050781 1196.789062 L 1338.988281 1241.980469 C 1211.269531 1343.128906 1097.308594 1358.109375 1023.140625 1338.011719 C 999.082031 1331.488281 978.898438 1321.25 963.425781 1308.929688 C 946.894531 1295.769531 935.488281 1280.039062 930.082031 1263.539062 C 921.714844 1238.03125 927.269531 1211.679688 949.5 1190.21875 L 1256.480469 893.898438 C 1221.339844 901.511719 1190.058594 913.828125 1158.890625 926.121094 C 1087.941406 954.089844 1017.449219 981.859375 903.113281 960.671875 L 682.824219 1428.988281 C 734.347656 1454.238281 756.273438 1489.910156 779.074219 1527.019531 C 787.777344 1541.179688 796.625 1555.589844 807.34375 1569.25 L 841.957031 1510.910156 C 857.65625 1484.449219 883.035156 1466.070312 911.273438 1457.761719 C 938.851562 1449.648438 969.320312 1451.140625 996.3125 1464.089844 C 997.585938 1464.570312 998.796875 1465.179688 999.929688 1465.898438 C 1001.941406 1466.941406 1003.648438 1467.878906 1005.058594 1468.71875 C 1028.480469 1482.609375 1044.640625 1503.820312 1052.210938 1527.769531 C 1066.148438 1514.730469 1083.050781 1505.289062 1101.121094 1499.980469 C 1128.691406 1491.871094 1159.160156 1493.351562 1186.148438 1506.308594 C 1187.429688 1506.789062 1188.640625 1507.398438 1189.78125 1508.121094 C 1191.78125 1509.148438 1193.488281 1510.089844 1194.898438 1510.929688 C 1219.050781 1525.25 1235.488281 1547.378906 1242.738281 1572.261719 C 1247.519531 1588.640625 1248.28125 1606.179688 1244.609375 1623.441406 C 1272.21875 1615.890625 1302.53125 1617.890625 1329.25 1631.308594 L 1329.300781 1631.339844 C 1332.078125 1632.730469 1334.359375 1633.960938 1336.160156 1635.03125 C 1360.308594 1649.359375 1376.738281 1671.480469 1384 1696.359375 C 1390.429688 1718.429688 1389.578125 1742.621094 1380.410156 1765.390625 C 1398.71875 1762.960938 1417.78125 1765.511719 1435.140625 1773.761719 C 1436.429688 1774.238281 1437.660156 1774.859375 1438.808594 1775.589844 C 1440.390625 1776.410156 1441.710938 1777.128906 1442.761719 1777.75 C 1462.878906 1789.691406 1476.570312 1808.128906 1482.621094 1828.878906 C 1488.640625 1849.53125 1487.011719 1872.398438 1476.511719 1893.308594 C 1475.320312 1895.675781 1474.28125 1897.605469 1473.410156 1899.085938 L 1419.238281 1990.378906 C 1432.03125 1999.164062 1444.679688 2008.257812 1457.539062 2017.503906 C 1471.558594 2027.574219 1485.871094 2037.863281 1505.539062 2051.132812 C 1527.988281 2066.273438 1553.921875 2069.714844 1577.46875 2064.605469 C 1589.320312 2062.035156 1600.558594 2057.308594 1610.441406 2050.828125 C 1620.171875 2044.457031 1628.539062 2036.40625 1634.828125 2027.074219 C 1644.121094 2013.308594 1648.890625 1996.523438 1646.710938 1978.039062 L 1530.839844 1901.417969 C 1521.671875 1895.347656 1519.148438 1882.988281 1525.21875 1873.820312 C 1531.289062 1864.648438 1543.648438 1862.136719 1552.820312 1868.207031 L 1675.921875 1949.601562 C 1676.179688 1949.773438 1676.441406 1949.953125 1676.691406 1950.136719 C 1699.179688 1964.996094 1723.601562 1968.683594 1745.800781 1964.28125 C 1758.019531 1961.855469 1769.601562 1956.976562 1779.828125 1950.171875 C 1790.058594 1943.367188 1798.898438 1934.679688 1805.648438 1924.628906 C 1816.210938 1908.90625 1821.75 1889.675781 1819.558594 1868.929688 L 1648.128906 1756.96875 C 1638.921875 1750.980469 1636.300781 1738.660156 1642.289062 1729.449219 C 1648.269531 1720.238281 1660.589844 1717.621094 1669.808594 1723.601562 L 1847.308594 1839.53125 C 1870.5 1849.265625 1894.25 1849.210938 1915.128906 1842.328125 C 1928.121094 1838.042969 1939.988281 1831.128906 1949.910156 1822.308594 C 1959.78125 1813.53125 1967.679688 1802.960938 1972.78125 1791.300781 C 1979.351562 1776.308594 1981.371094 1759.28125 1977.101562 1741.75 L 1760.210938 1598.328125 C 1751.03125 1592.261719 1748.519531 1579.898438 1754.589844 1570.730469 C 1760.660156 1561.558594 1773.019531 1559.050781 1782.191406 1565.121094 L 2002.308594 1710.671875 C 2015.769531 1713.601562 2028.671875 1712.21875 2040.011719 1708.628906 C 2056.828125 1703.320312 2069.878906 1693.550781 2076.511719 1685.621094 C 2077.480469 1684.449219 2078.269531 1683.46875 2078.890625 1682.691406 L 2079.558594 1681.691406 C 2090.589844 1666.53125 2095.949219 1647.75 2095.441406 1630.179688 C 2094.960938 1613.898438 2089.410156 1599 2078.609375 1589.988281 C 2078.03125 1589.5 2077.390625 1589 2076.699219 1588.5 Z M 1341.871094 1832.96875 L 1268.238281 1957.0625 L 1268.179688 1957.152344 L 1258.511719 1973.457031 C 1257.609375 1974.976562 1256.988281 1976.066406 1256.648438 1976.742188 C 1250.820312 1988.363281 1249.890625 2000.984375 1253.191406 2012.324219 C 1256.46875 2023.5625 1264 2033.617188 1275.121094 2040.214844 L 1277.179688 2041.410156 C 1278.078125 2041.785156 1278.960938 2042.234375 1279.808594 2042.746094 C 1292.878906 2048.835938 1307.761719 2049.425781 1321.390625 2045.421875 C 1335.488281 2041.273438 1348.078125 2032.222656 1355.761719 2019.269531 L 1439.101562 1878.8125 C 1440 1877.300781 1440.621094 1876.207031 1440.960938 1875.53125 C 1446.789062 1863.910156 1447.730469 1851.285156 1444.421875 1839.949219 C 1441.140625 1828.710938 1433.609375 1818.660156 1422.488281 1812.058594 C 1421.039062 1811.191406 1419.96875 1810.589844 1419.28125 1810.238281 L 1419.238281 1810.21875 C 1405.828125 1803.488281 1390.351562 1802.699219 1376.21875 1806.851562 C 1362.140625 1810.988281 1349.550781 1820.03125 1341.871094 1832.96875 Z M 1233.890625 1936.871094 L 1307.539062 1812.730469 L 1307.558594 1812.699219 L 1338.601562 1760.390625 C 1339.730469 1758.488281 1340.558594 1757 1341.101562 1755.929688 C 1349.039062 1740.109375 1350.308594 1722.898438 1345.800781 1707.429688 C 1341.320312 1692.058594 1331.039062 1678.328125 1315.890625 1669.339844 C 1314.699219 1668.628906 1313.660156 1668.03125 1312.78125 1667.550781 C 1311.820312 1667.160156 1310.890625 1666.691406 1309.980469 1666.140625 C 1292.25 1657.730469 1272.050781 1656.851562 1253.601562 1662.28125 C 1234.660156 1667.851562 1217.71875 1680.039062 1207.359375 1697.5 L 1194.519531 1719.140625 L 1102.691406 1873.902344 L 1102.640625 1873.992188 L 1102.589844 1874.078125 L 1102.53125 1874.164062 L 1102.480469 1874.253906 L 1102.378906 1874.425781 C 1101.410156 1876.078125 1100.679688 1877.386719 1100.199219 1878.355469 C 1092.25 1894.179688 1090.980469 1911.390625 1095.488281 1926.859375 C 1099.980469 1942.230469 1110.25 1955.964844 1125.410156 1964.960938 C 1126.601562 1965.664062 1127.628906 1966.261719 1128.511719 1966.738281 C 1129.46875 1967.132812 1130.410156 1967.605469 1131.308594 1968.15625 C 1149.039062 1976.5625 1169.238281 1977.4375 1187.691406 1972.011719 C 1206.609375 1966.449219 1223.519531 1954.289062 1233.890625 1936.871094 Z M 1341.871094 1832.96875 L 1341.851562 1833 L 1268.179688 1957.152344 Z M 1160.210938 1698.871094 L 1173.050781 1677.230469 C 1188.75 1650.769531 1214.128906 1632.378906 1242.371094 1624.078125 Z M 1042.019531 1613.988281 L 1041.96875 1614.078125 L 1041.910156 1614.171875 L 1041.859375 1614.25 L 1041.808594 1614.339844 L 937.121094 1790.78125 L 930.921875 1801.230469 C 929.792969 1803.128906 928.964844 1804.609375 928.425781 1805.679688 C 920.480469 1821.511719 919.214844 1838.714844 923.726562 1854.183594 C 928.207031 1869.554688 938.480469 1883.292969 953.636719 1892.28125 C 954.828125 1892.992188 955.867188 1893.585938 956.742188 1894.066406 C 957.703125 1894.460938 958.640625 1894.933594 959.539062 1895.480469 C 977.269531 1903.890625 997.472656 1904.765625 1015.929688 1899.335938 C 1034.871094 1893.765625 1051.808594 1881.578125 1062.171875 1864.117188 L 1068.179688 1853.984375 L 1068.230469 1853.894531 L 1068.28125 1853.808594 L 1068.339844 1853.71875 L 1068.390625 1853.632812 L 1160.210938 1698.871094 L 1197.351562 1636.289062 C 1198.480469 1634.378906 1199.308594 1632.898438 1199.839844 1631.828125 C 1207.789062 1616.011719 1209.050781 1598.800781 1204.539062 1583.328125 C 1200.058594 1567.960938 1189.789062 1554.21875 1174.628906 1545.230469 C 1172.800781 1544.140625 1171.339844 1543.320312 1170.261719 1542.78125 L 1170.21875 1542.761719 C 1152.128906 1533.671875 1131.308594 1532.601562 1112.339844 1538.179688 C 1093.398438 1543.75 1076.460938 1555.941406 1066.101562 1573.398438 Z M 984.792969 1503.019531 C 982.964844 1501.941406 981.496094 1501.109375 980.417969 1500.570312 L 980.378906 1500.550781 C 962.292969 1491.460938 941.472656 1490.378906 922.5 1495.960938 C 903.558594 1501.53125 886.617188 1513.71875 876.261719 1531.179688 L 771.59375 1707.589844 C 770.464844 1709.488281 769.636719 1710.96875 769.097656 1712.039062 C 761.152344 1727.871094 759.890625 1745.078125 764.398438 1760.539062 C 768.878906 1775.910156 779.152344 1789.648438 794.308594 1798.640625 C 795.5 1799.351562 796.535156 1799.941406 797.414062 1800.421875 C 798.375 1800.820312 799.3125 1801.289062 800.214844 1801.839844 C 817.941406 1810.25 838.148438 1811.121094 856.601562 1805.699219 C 875.527344 1800.128906 892.457031 1787.949219 902.820312 1770.511719 L 902.839844 1770.46875 L 1007.511719 1594.070312 L 1007.558594 1593.980469 L 1007.609375 1593.890625 L 1007.660156 1593.808594 L 1007.761719 1593.628906 L 1007.808594 1593.550781 L 1007.871094 1593.460938 C 1008.808594 1591.851562 1009.519531 1590.570312 1010 1589.621094 C 1017.949219 1573.789062 1019.210938 1556.578125 1014.699219 1541.121094 C 1010.21875 1525.75 999.949219 1512.011719 984.792969 1503.019531 Z M 897.644531 872.960938 L 676.410156 768.898438 C 675.761719 768.589844 675.027344 768.578125 674.378906 768.820312 C 673.769531 769.039062 673.246094 769.46875 672.964844 770.070312 L 389.441406 1372.820312 C 389.136719 1373.46875 389.128906 1374.199219 389.363281 1374.851562 C 389.574219 1375.441406 389.996094 1375.949219 390.566406 1376.230469 L 611.847656 1480.320312 C 612.496094 1480.628906 613.230469 1480.640625 613.878906 1480.398438 C 614.488281 1480.179688 615.011719 1479.738281 615.292969 1479.148438 L 898.816406 876.398438 C 899.121094 875.75 899.128906 875.019531 898.894531 874.371094 C 898.683594 873.78125 898.261719 873.269531 897.691406 872.980469 Z M 1781.578125 873.929688 C 1782.039062 874.339844 1781.839844 874.160156 1781.578125 873.929688 " class="svgShape color231f20-0 selectable"></path></svg></g></svg>