<svg id="SvgjsSvg1064" width="288" height="288" xmlns="http://www.w3.org/2000/svg" version="1.1" xmlns:xlink="http://www.w3.org/1999/xlink" xmlns:svgjs="http://svgjs.com/svgjs"><defs id="SvgjsDefs1065"></defs><g id="SvgjsG1066"><svg xmlns="http://www.w3.org/2000/svg" enable-background="new 0 0 512.113 512.113" viewBox="0 0 512.113 512.113" width="288" height="288"><path d="m349.36 189.745c-33.794 0-65.932 10.206-93.306 29.558-104.151-75.394-256.082 2.014-254.852 131.573-1.142 129.275 150.146 207.114 254.908 131.609 54.601 39.616 133.849 39.148 188.058-1.109 3.356-2.427 4.11-7.116 1.684-10.472-2.428-3.357-7.118-4.109-10.473-1.683-134.472 94.517-299.457-67.824-205.438-203.178 6.168 4.851 11.836 10.398 16.818 16.46-55.318 80.061 6.029 191.96 102.601 191.432 68.07.001 123.45-55.205 123.45-123.062 1.23-94.562-107.399-155.333-187.503-105.164-5.178-5.985-10.796-11.59-16.8-16.763 146.33-91.717 303.4 92.349 188.099 221.573-2.83 3.024-2.674 7.77.351 10.601 3.023 2.831 7.771 2.672 10.601-.35 96.225-101.216 21.495-272-118.198-271.025zm-161.645 161.128c0 33.883 10.292 65.955 29.833 93.275-70.412 42.437-164.225-11.019-163.154-93.277-1.171-82.332 93.121-135.696 163.153-93.273-19.54 27.322-29.832 59.393-29.832 93.275zm68.395-55.087c19.937 32.114 20.275 77.567-.005 110.167-20.19-32.937-20.188-77.233.005-110.167zm9.337 123.439c55.271-80.048-5.907-191.968-102.604-191.414-68.069-.001-123.449 55.205-123.449 123.062-1.23 94.565 107.413 155.346 187.508 105.144 5.181 5.989 10.79 11.609 16.798 16.786-94.742 64.491-229.051-7.139-227.498-121.932-.002-80.573 65.783-146.126 146.642-146.126 117.727-1.052 188.806 136.072 119.429 230.939-6.192-4.869-11.826-10.373-16.826-16.459zm192.364-68.352c1.068 82.256-92.75 135.719-163.147 93.272 39.867-53.257 39.063-134.171-.056-186.51 70.408-42.516 164.276 10.974 163.203 93.238z" fill="#c68c2e" class="svgShape color000000-0 selectable"></path><path d="M209.725 147.225c20.864 19.283 41.407 32.783 42.271 33.349 2.737 1.631 5.474 1.631 8.211 0 25.713-16.079 88.597-68.413 85.965-104.907-.258-48.87-64.374-66.663-90.071-25.908-11.68-19.6-39.397-28.676-60.895-18.663-3.793 1.664-5.52 6.087-3.855 9.881 1.663 3.794 6.087 5.521 9.881 3.856 21.579-9.964 47.866 7.034 47.369 30.835 0 4.142 3.358 7.5 7.5 7.5s7.5-3.358 7.5-7.5c1.69-44.61 65.885-44.605 67.572 0 0 31.338-50.807 72.861-75.074 89.591-26.627-19.686-88.435-65.413-72.074-103.45 1.712-3.772.043-8.217-3.729-9.93-3.775-1.713-8.218-.042-9.93 3.729-13.099 31.586 5.166 58.881 39.359 91.617zM128.116 14.001l15.704 9.043c3.417 1.969 8.272.664 10.241-2.757 2.067-3.59.833-8.175-2.757-10.242l-15.704-9.043c-3.587-2.067-8.174-.833-10.241 2.757-2.067 3.589-.832 8.175 2.757 10.242zM112.638 86.543h18.134c9.931-.344 9.923-14.659 0-15h-18.134c-9.931.344-9.924 14.66 0 15zM143.82 135.043l-15.704 9.043c-3.59 2.067-4.824 6.652-2.757 10.242 1.97 3.421 6.823 4.725 10.241 2.757l15.704-9.043c3.59-2.067 4.824-6.652 2.757-10.242-2.066-3.589-6.652-4.823-10.241-2.757zM360.899 148.042l15.704 9.043c3.417 1.969 8.272.664 10.241-2.757 2.067-3.59.833-8.175-2.757-10.242l-15.704-9.043c-3.587-2.067-8.175-.833-10.241 2.757-2.068 3.59-.833 8.175 2.757 10.242zM373.932 79.044c0 4.142 3.357 7.5 7.5 7.5h18.134c9.931-.344 9.923-14.659 0-15h-18.134c-4.143 0-7.5 3.358-7.5 7.5zM368.383 23.044l15.704-9.043c3.59-2.067 4.824-6.652 2.757-10.242-2.066-3.589-6.652-4.823-10.241-2.757l-15.704 9.043c-3.59 2.067-4.684 6.575-2.757 10.242 2.126 4.048 6.46 4.548 10.241 2.757z" fill="#c68c2e" class="svgShape color000000-1 selectable"></path></svg></g></svg>