<svg id="SvgjsSvg1460" width="288" height="288" xmlns="http://www.w3.org/2000/svg" version="1.1" xmlns:xlink="http://www.w3.org/1999/xlink" xmlns:svgjs="http://svgjs.com/svgjs"><defs id="SvgjsDefs1461"></defs><g id="SvgjsG1462"><svg xmlns="http://www.w3.org/2000/svg" version="1.0" viewBox="0 0 980 980" width="288" height="288"><g transform="matrix(.1 0 0 -.1 0 980)"><path d="M4240 7654 c-156 -19 -218 -28 -305 -45 -576 -115 -1131 -431 -1513-862 -449 -505 -686 -1096 -708 -1762 -16 -460 76 -883 286 -1311 365 -744
1068 -1294 1885 -1473 263 -58 180 -55 1705 -59 977 -2 1430 0 1488 8 409 54
789 331 967 706 51 108 55 136 20 168 -28 26 -29 26 -197 26 l-169 0 83 82
c127 126 208 241 279 396 31 70 35 98 16 123 -26 34 -55 39 -215 39 l-159 0
97 98 c104 106 191 229 251 358 45 94 47 111 18 148 l-20 26 -175 0 c-96 0
-174 2 -174 5 0 3 34 38 76 77 42 40 105 111 140 158 71 95 174 287 174 326 0
14 -11 36 -25 49 l-24 25 -394 0 -395 0 -6 98 c-38 556 -223 1064 -544 1491
-447 593 -1076 969 -1822 1086 -101 16 -552 29 -640 19z m534 -159 c647 -76
1204 -361 1648 -845 323 -351 545 -800 633 -1274 21 -119 45 -320 45 -389 l0
-27 -382 2 -383 3 -7 90 c-24 294 -130 604 -289 846 -83 125 -106 154 -234
287 -177 183 -368 315 -597 412 -250 105 -448 145 -728 145 -282 0 -484 -41
-732 -148 -215 -92 -381 -203 -552 -367 -308 -298 -489 -651 -552 -1080 -13
-89 -15 -157 -11 -300 8 -297 53 -484 177 -745 166 -352 436 -637 782 -826 71
-40 131 -82 194 -140 l91 -84 -175 -5 c-168 -5 -174 -6 -193 -29 -27 -34 -24
-63 19 -155 93 -196 221 -350 406 -489 59 -45 48 -46 -89 -11 -487 123 -901
364 -1250 725 -206 214 -333 396 -465 664 -94 190 -139 311 -185 489 -229 896
22 1830 668 2485 424 429 960 693 1561 765 153 19 443 19 600 1z m-94 -909
c202 -26 354 -69 527 -151 346 -164 625 -434 793 -770 99 -198 163 -421 177
-617 l6 -88 -1320 0 -1320 0 -28 -22 c-24 -18 -27 -26 -22 -60 8 -57 87 -209
161 -308 35 -47 100 -120 145 -163 45 -42 81 -79 81 -82 0 -3 -79 -5 -175 -5
-166 0 -175 -1 -195 -22 -29 -32 -25 -64 20 -158 66 -135 145 -247 250 -352
l97 -97 -175 -3 c-169 -3 -174 -4 -193 -27 -24 -30 -24 -58 1 -115 10 -25 15
-46 10 -46 -19 0 -209 161 -280 237 -222 237 -363 511 -432 840 -20 94 -23
137 -23 328 1 246 14 333 81 534 253 759 1024 1246 1814 1147z m3210 -1783 c0
-4 -18 -36 -39 -72 -84 -141 -231 -285 -376 -370 l-70 -41 -1617 0 -1618 0
-71 43 c-151 90 -303 244 -393 400 l-28 47 2106 0 c1158 0 2106 -3 2106 -7z
m0 -640 c0 -17 -78 -133 -137 -205 -69 -83 -174 -173 -271 -232 l-60 -36
-1635 0 -1634 0 -74 48 c-153 100 -286 237 -366 376 l-32 56 2105 0 c1157 0
2104 -3 2104 -7z m0 -636 c0 -29 -122 -196 -197 -270 -79 -78 -175 -151 -245
-188 -36 -18 -80 -19 -1658 -19 l-1621 0 -42 21 c-65 34 -176 119 -249 192
-67 67 -188 236 -188 263 0 12 283 14 2100 14 1736 0 2100 -2 2100 -13z m0
-639 c0 -28 -109 -178 -188 -260 -163 -170 -376 -282 -610 -323 -129 -23
-2478 -22 -2608 0 -152 27 -308 90 -439 178 -122 82 -287 264 -349 385 l-17
32 2106 0 c1677 0 2105 -3 2105 -12z" fill="#c68c2e" class="svgShape color000000-1 selectable"></path><path d="M4180 7345c-573-75-1089-333-1482-743-53-55-99-110-103-122-16-49 40-109 87-94 11 3 79 65 152 138 72 72 176 166 231 207 331 251 720 410 1130 463 149 20 434 20 575 2 118-16 148-10 164 35 14 41 0 78-37 94-83 34-518 46-717 20zM2108 5495c-30-17-46-72-72-255-27-191-30-287-12-316 25-36 60-47 96-29 35 18 37 25 50 180 5 66 19 172 30 235 25 145 25 146-5 175-27 28-48 31-87 10z" fill="#c68c2e" class="svgShape color000000-2 selectable"></path></g></svg></g></svg>